<?xml version="1.0" encoding="iso-8859-1"?>
<!-- Uploaded to: SVG Repo, www.svgrepo.com, Generator: SVG Repo Mixer Tools -->
<svg version="1.1" id="Layer_1" xmlns="http://www.w3.org/2000/svg" xmlns:xlink="http://www.w3.org/1999/xlink" 
	 viewBox="0 0 512.01 512.01" xml:space="preserve">
<rect x="0.005" style="fill:#FCC062;" width="512" height="304.813"/>
<rect x="0.005" y="167.997" style="fill:#FBB03B;" width="512" height="136.816"/>
<rect x="0.005" y="216.003" style="fill:#F15A24;" width="512" height="88.82"/>
<rect x="0.005" y="279.998" style="fill:#B5441B;" width="512" height="24.818"/>
<path style="fill:#F14950;" d="M64.08,303.424c-19.117-11.069-32.026-31.745-32.026-55.424c0-35.346,28.727-64,64.073-64
	s64.074,28.653,64.074,63.999v56L64.08,303.424z"/>
<path style="fill:#ED1C24;" d="M112.08,303.424c-19.116-11.069-32.025-31.745-32.025-55.424c0-26.852,16.531-49.805,39.976-59.304
	c-7.416-3.005-15.518-4.696-24.013-4.696c-35.346,0-64.006,28.654-64.006,64c0,23.68,12.955,44.354,32.071,55.424L160.202,304
	v-0.288L112.08,303.424z"/>
<rect x="0.005" y="304.205" style="fill:#29ABE2;" width="512" height="207.805"/>
<rect x="0.005" y="304.205" style="fill:#54BCE8;" width="512" height="103.803"/>
<rect x="0.005" y="304.205" style="fill:#7FCDEE;" width="512" height="47.8"/>
<rect x="0.005" y="304.205" style="fill:#A9DDF3;" width="512" height="15.8"/>
<path style="fill:#A67C52;" d="M120.005,288.001L120.005,288.001c0-22.091,17.908-40,40-40h24l24-24h32.001v-24l24-24v-40h88v48
	l16,16v40l8,8h16v24h56v32.001h-328V288.001z"/>
<g>
	<polygon style="fill:#C7B299;" points="216.005,272 120.005,272 144.005,248 216.005,248 	"/>
	<rect x="296.002" y="248.001" style="fill:#C7B299;" width="96.003" height="24"/>
	<rect x="336.103" y="200.005" style="fill:#C7B299;" width="31.902" height="24"/>
	<rect x="200.01" y="224.003" style="fill:#C7B299;" width="80.004" height="24"/>
	<rect x="264.005" y="135.999" style="fill:#C7B299;" width="88.003" height="24"/>
</g>
<g>
	<rect x="47.122" y="327.722" style="fill:#FFFFFF;" width="128.785" height="15.706"/>
	<rect x="191.613" y="327.722" style="fill:#FFFFFF;" width="55.493" height="15.706"/>
	<rect x="144.496" y="359.133" style="fill:#FFFFFF;" width="207.313" height="15.706"/>
	<rect x="343.433" y="392.638" style="fill:#FFFFFF;" width="113.08" height="15.706"/>
	<rect x="31.416" y="440.802" style="fill:#FFFFFF;" width="48.164" height="15.706"/>
	<rect x="112.038" y="440.802" style="fill:#FFFFFF;" width="191.607" height="15.706"/>
	<rect x="103.662" y="392.638" style="fill:#FFFFFF;" width="33.505" height="15.706"/>
	<rect x="408.349" y="343.427" style="fill:#FFFFFF;" width="15.706" height="15.706"/>
	<rect x="424.054" y="327.722" style="fill:#FFFFFF;" width="56.54" height="15.706"/>
	<rect x="456.512" y="415.673" style="fill:#FFFFFF;" width="31.411" height="15.706"/>
	<rect x="303.645" y="464.883" style="fill:#FFFFFF;" width="55.493" height="15.706"/>
	<rect x="272.234" y="87.951" style="fill:#FFFFFF;" width="15.706" height="24.082"/>
	<rect x="296.316" y="47.117" style="fill:#FFFFFF;" width="15.706" height="49.211"/>
	<rect x="320.398" y="103.656" style="fill:#FFFFFF;" width="15.706" height="15.706"/>
	<rect x="336.103" y="71.198" style="fill:#FFFFFF;" width="15.706" height="16.753"/>
</g>
<path d="M67.357,296.311c-16.977-10.098-27.499-28.518-27.499-48.274c0-30.96,25.187-56.111,56.147-56.111
	c28.53,0,52.14,21.074,55.674,48.961c-22.429,3.954-39.527,23.568-39.527,47.112h15.706c0-17.726,14.421-32.147,32.147-32.147
	h27.252l0.008-0.008l28.732-0.02l-0.303-16.054l-12.473,0.118l8.036-8.036h68.747v-15.706h-32.899v-12.788l25.129-24v-10.787h15.706
	v-15.706h-15.706v-8.376h71.198v48.164h-7.329v15.706h23.035v31.787h-39.133v15.706h60c2.287,0,4.147,1.861,4.147,4.147
	c0,10.947,8.906,19.853,19.853,19.853h28c4.492,0,8.147,3.655,8.147,8.147h15.706c0-13.152-10.701-23.853-23.853-23.853h-28
	c-2.287,0-4.147-1.861-4.147-4.147c0-10.947-8.906-19.853-19.853-19.853h-5.162v-47.492h-15.706v-63.869H256.529v43.856l-25.129,24
	v19.506h-26.647l-23.954,23.954l-4.892,0.045h-8.502c-3.979-36.006-34.475-63.927-71.4-63.927c-39.62,0-71.853,32.16-71.853,71.779
	c0,18.056,6.872,35.249,18.707,48.311H0.005v15.706h512v-15.706L67.357,296.311L67.357,296.311z"/>
<g>
	<rect x="408.349" y="160.196" style="fill:#FFFFFF;" width="72.245" height="15.706"/>
	<rect x="383.22" y="128.785" style="fill:#FFFFFF;" width="25.129" height="15.706"/>
	<rect x="71.204" y="144.491" style="fill:#FFFFFF;" width="113.08" height="15.706"/>
	<rect x="24.087" y="112.033" style="fill:#FFFFFF;" width="72.245" height="15.706"/>
	<rect x="119.367" y="112.033" style="fill:#FFFFFF;" width="25.129" height="15.706"/>
</g>
</svg>